<svg width="614.4" height="460.8" viewBox="0 0 460.8 345.6" xmlns="http://www.w3.org/2000/svg" xmlns:xlink="http://www.w3.org/1999/xlink" stroke-linejoin="round" overflow="hidden"><defs></defs><defs><clipPath id="p1af4325642"><rect x="57.6" y="41.472" width="357.12" height="266.112"/></clipPath></defs><g id="figure_1"><g id="patch_1"><path d="M0 345.6 460.8 345.6 460.8 0 0 0Z" fill="#FFFFFF"/></g><g id="axes_1"><g id="patch_2"><path d="M57.6 307.584 414.72 307.584 414.72 41.472 57.6 41.472Z" fill="#FFFFFF"/></g><g id="matplotlib.axis_1"><g id="xtick_1"><g id="line2d_1"><defs><path d="M0 0 0 3.5" id="md41810ed47" stroke="#000000" stroke-width="0.8"/></defs><g><use x="73.8327" y="307.584" width="100%" height="100%" xlink:href="#md41810ed47" stroke="#000000" stroke-width="0.8"></use></g></g><g id="text_1"><g transform="matrix(0.1 0 0 -0.1 65.8812 322.182)"><defs><path d="M2034 4250C1709.33 4250 1465 4090 1301 3770 1137.67 3450.67 1056 2970 1056 2328 1056 1688.67 1137.67 1209 1301 889 1465 569 1709.33 409 2034 409 2361.33 409 2606.67 569 2770 889 2934 1209 3016 1688.67 3016 2328 3016 2970 2934 3450.67 2770 3770 2606.67 4090 2361.33 4250 2034 4250ZM2034 4750C2557.33 4750 2957 4543 3233 4129 3509 3715.67 3647 3115.33 3647 2328 3647 1542.67 3509 943 3233 529 2957 115.667 2557.33-91 2034-91 1511.33-91 1112 115.667 836 529 560 943 422 1542.67 422 2328 422 3115.33 560 3715.67 836 4129 1112 4543 1511.33 4750 2034 4750Z" id="DejaVuSans-30" transform="scale(0.015625 0.015625)"/><path d="M684 794 1344 794 1344 0 684 0 684 794Z" id="DejaVuSans-2e" transform="scale(0.015625 0.015625)"/></defs><use width="100%" height="100%" xlink:href="#DejaVuSans-30"></use><use x="63.623" width="100%" height="100%" xlink:href="#DejaVuSans-2e"></use><use x="95.4102" width="100%" height="100%" xlink:href="#DejaVuSans-30"></use></g></g></g><g id="xtick_2"><g id="line2d_2"><g><use x="138.764" y="307.584" width="100%" height="100%" xlink:href="#md41810ed47" stroke="#000000" stroke-width="0.8"></use></g></g><g id="text_2"><g transform="matrix(0.1 0 0 -0.1 130.812 322.182)"><defs><path d="M1228 531 3431 531 3431 0 469 0 469 531C708.333 779 1034.67 1111.67 1448 1529 1862 1947 2122 2216.67 2228 2338 2430 2564.67 2571 2756.67 2651 2914 2731.67 3071.33 2772 3226 2772 3378 2772 3626 2685 3828 2511 3984 2337 4140.67 2110.33 4219 1831 4219 1633 4219 1424 4184.67 1204 4116 984.667 4047.33 750 3943 500 3803L500 4441C754 4543 991.333 4620 1212 4672 1433.33 4724 1635.67 4750 1819 4750 2302.33 4750 2687.67 4629 2975 4387 3262.33 4145.67 3406 3823 3406 3419 3406 3227 3370 3045 3298 2873 3226.67 2701.67 3096 2499.33 2906 2266 2854 2205.33 2688.33 2030.67 2409 1742 2130.33 1453.33 1736.67 1049.67 1228 531Z" id="DejaVuSans-32" transform="scale(0.015625 0.015625)"/></defs><use width="100%" height="100%" xlink:href="#DejaVuSans-30"></use><use x="63.623" width="100%" height="100%" xlink:href="#DejaVuSans-2e"></use><use x="95.4102" width="100%" height="100%" xlink:href="#DejaVuSans-32"></use></g></g></g><g id="xtick_3"><g id="line2d_3"><g><use x="203.695" y="307.584" width="100%" height="100%" xlink:href="#md41810ed47" stroke="#000000" stroke-width="0.8"></use></g></g><g id="text_3"><g transform="matrix(0.1 0 0 -0.1 195.743 322.182)"><defs><path d="M2419 4116 825 1625 2419 1625 2419 4116ZM2253 4666 3047 4666 3047 1625 3713 1625 3713 1100 3047 1100 3047 0 2419 0 2419 1100 313 1100 313 1709 2253 4666Z" id="DejaVuSans-34" transform="scale(0.015625 0.015625)"/></defs><use width="100%" height="100%" xlink:href="#DejaVuSans-30"></use><use x="63.623" width="100%" height="100%" xlink:href="#DejaVuSans-2e"></use><use x="95.4102" width="100%" height="100%" xlink:href="#DejaVuSans-34"></use></g></g></g><g id="xtick_4"><g id="line2d_4"><g><use x="268.625" y="307.584" width="100%" height="100%" xlink:href="#md41810ed47" stroke="#000000" stroke-width="0.8"></use></g></g><g id="text_4"><g transform="matrix(0.1 0 0 -0.1 260.674 322.182)"><defs><path d="M2113 2584C1829.67 2584 1605 2487 1439 2293 1273.67 2099.67 1191 1834.33 1191 1497 1191 1161.67 1273.67 896.333 1439 701 1605 506.333 1829.67 409 2113 409 2396.33 409 2620.67 506.333 2786 701 2951.33 896.333 3034 1161.67 3034 1497 3034 1834.33 2951.33 2099.67 2786 2293 2620.67 2487 2396.33 2584 2113 2584ZM3366 4563 3366 3988C3207.33 4062.67 3047.33 4119.67 2886 4159 2724.67 4199 2564.67 4219 2406 4219 1989.33 4219 1671 4078.33 1451 3797 1231.67 3515.67 1106.33 3090.67 1075 2522 1197.67 2703.33 1351.67 2842.33 1537 2939 1723 3035.67 1927.33 3084 2150 3084 2618.67 3084 2989 2941.67 3261 2657 3533 2373 3669 1986.33 3669 1497 3669 1017.67 3527.33 633 3244 343 2960.67 53.6667 2583.67-91 2113-91 1573-91 1160.33 115.667 875 529 589.667 943 447 1542.67 447 2328 447 3065.33 622 3653.33 972 4092 1322 4530.67 1791.67 4750 2381 4750 2539.67 4750 2699.67 4734.33 2861 4703 3022.33 4671.67 3190.67 4625 3366 4563Z" id="DejaVuSans-36" transform="scale(0.015625 0.015625)"/></defs><use width="100%" height="100%" xlink:href="#DejaVuSans-30"></use><use x="63.623" width="100%" height="100%" xlink:href="#DejaVuSans-2e"></use><use x="95.4102" width="100%" height="100%" xlink:href="#DejaVuSans-36"></use></g></g></g><g id="xtick_5"><g id="line2d_5"><g><use x="333.556" y="307.584" width="100%" height="100%" xlink:href="#md41810ed47" stroke="#000000" stroke-width="0.8"></use></g></g><g id="text_5"><g transform="matrix(0.1 0 0 -0.1 325.605 322.182)"><defs><path d="M2034 2216C1734 2216 1498 2135.67 1326 1975 1154.67 1814.33 1069 1593.67 1069 1313 1069 1031.67 1154.67 810.667 1326 650 1498 489.333 1734 409 2034 409 2334 409 2570.33 489.667 2743 651 2916.33 813 3003 1033.67 3003 1313 3003 1593.67 2917 1814.33 2745 1975 2573.67 2135.67 2336.67 2216 2034 2216ZM1403 2484C1132.33 2550.67 921.333 2676.67 770 2862 619.333 3048 544 3274.33 544 3541 544 3913.67 676.667 4208.33 942 4425 1208 4641.67 1572 4750 2034 4750 2498.67 4750 2863.33 4641.67 3128 4425 3392.67 4208.33 3525 3913.67 3525 3541 3525 3274.33 3449.33 3048 3298 2862 3147.33 2676.67 2937.67 2550.67 2669 2484 2973 2413.33 3209.67 2274.67 3379 2068 3549 1862 3634 1610.33 3634 1313 3634 860.333 3496 513 3220 271 2944 29.6667 2548.67-91 2034-91 1520-91 1124.67 29.6667 848 271 572 513 434 860.333 434 1313 434 1610.33 519.333 1862 690 2068 861.333 2274.67 1099 2413.33 1403 2484ZM1172 3481C1172 3239.67 1247.33 3051.33 1398 2916 1549.33 2780.67 1761.33 2713 2034 2713 2305.33 2713 2517.33 2780.67 2670 2916 2823.33 3051.33 2900 3239.67 2900 3481 2900 3723 2823.33 3911.67 2670 4047 2517.33 4182.33 2305.33 4250 2034 4250 1761.33 4250 1549.33 4182.33 1398 4047 1247.33 3911.67 1172 3723 1172 3481Z" id="DejaVuSans-38" transform="scale(0.015625 0.015625)"/></defs><use width="100%" height="100%" xlink:href="#DejaVuSans-30"></use><use x="63.623" width="100%" height="100%" xlink:href="#DejaVuSans-2e"></use><use x="95.4102" width="100%" height="100%" xlink:href="#DejaVuSans-38"></use></g></g></g><g id="xtick_6"><g id="line2d_6"><g><use x="398.487" y="307.584" width="100%" height="100%" xlink:href="#md41810ed47" stroke="#000000" stroke-width="0.8"></use></g></g><g id="text_6"><g transform="matrix(0.1 0 0 -0.1 390.536 322.182)"><defs><path d="M794 531 1825 531 1825 4091 703 3866 703 4441 1819 4666 2450 4666 2450 531 3481 531 3481 0 794 0 794 531Z" id="DejaVuSans-31" transform="scale(0.015625 0.015625)"/></defs><use width="100%" height="100%" xlink:href="#DejaVuSans-31"></use><use x="63.623" width="100%" height="100%" xlink:href="#DejaVuSans-2e"></use><use x="95.4102" width="100%" height="100%" xlink:href="#DejaVuSans-30"></use></g></g></g><g id="text_7"><g transform="matrix(0.1 0 0 -0.1 226.646 335.861)"><defs><path d="M3513 3500 2247 1797 3578 0 2900 0 1881 1375 863 0 184 0 1544 1831 300 3500 978 3500 1906 2253 2834 3500 3513 3500Z" id="DejaVuSans-78" transform="scale(0.015625 0.015625)"/><path d="M1625 4666 2156 4666 531-594 0-594 1625 4666Z" id="DejaVuSans-2f" transform="scale(0.015625 0.015625)"/><path d="M3328 2828C3472 3086.67 3644 3277.33 3844 3400 4044 3522.67 4279.33 3584 4550 3584 4914.67 3584 5196 3456.33 5394 3201 5592 2946.33 5691 2583.67 5691 2113L5691 0 5113 0 5113 2094C5113 2429.33 5053.33 2678 4934 2840 4815.33 3002.67 4634.33 3084 4391 3084 4093 3084 3857.33 2985 3684 2787 3511.33 2589.67 3425 2320 3425 1978L3425 0 2847 0 2847 2094C2847 2431.33 2787.67 2680.67 2669 2842 2550.33 3003.33 2367 3084 2119 3084 1825 3084 1591.33 2984.67 1418 2786 1245.33 2587.33 1159 2318 1159 1978L1159 0 581 0 581 3500 1159 3500 1159 2956C1290.33 3170.67 1447.67 3329 1631 3431 1814.33 3533 2032 3584 2284 3584 2538.67 3584 2755 3519.33 2933 3390 3111 3261.33 3242.67 3074 3328 2828Z" id="DejaVuSans-6d" transform="scale(0.015625 0.015625)"/></defs><use width="100%" height="100%" xlink:href="#DejaVuSans-78"></use><use x="59.1797" width="100%" height="100%" xlink:href="#DejaVuSans-2f"></use><use x="92.8711" width="100%" height="100%" xlink:href="#DejaVuSans-6d"></use></g></g></g><g id="matplotlib.axis_2"><g id="ytick_1"><g id="line2d_7"><defs><path d="M0 0-3.5 0" id="me3ffbd7103" stroke="#000000" stroke-width="0.8"/></defs><g><use x="57.6" y="295.488" width="100%" height="100%" xlink:href="#me3ffbd7103" stroke="#000000" stroke-width="0.8"></use></g></g><g id="text_8"><g transform="matrix(0.1 0 0 -0.1 44.2375 299.287)"><use width="100%" height="100%" xlink:href="#DejaVuSans-30"></use></g></g></g><g id="ytick_2"><g id="line2d_8"><g><use x="57.6" y="251.343" width="100%" height="100%" xlink:href="#me3ffbd7103" stroke="#000000" stroke-width="0.8"></use></g></g><g id="text_9"><g transform="matrix(0.1 0 0 -0.1 37.875 255.142)"><use width="100%" height="100%" xlink:href="#DejaVuSans-32"></use><use x="63.623" width="100%" height="100%" xlink:href="#DejaVuSans-30"></use></g></g></g><g id="ytick_3"><g id="line2d_9"><g><use x="57.6" y="207.198" width="100%" height="100%" xlink:href="#me3ffbd7103" stroke="#000000" stroke-width="0.8"></use></g></g><g id="text_10"><g transform="matrix(0.1 0 0 -0.1 37.875 210.997)"><use width="100%" height="100%" xlink:href="#DejaVuSans-34"></use><use x="63.623" width="100%" height="100%" xlink:href="#DejaVuSans-30"></use></g></g></g><g id="ytick_4"><g id="line2d_10"><g><use x="57.6" y="163.053" width="100%" height="100%" xlink:href="#me3ffbd7103" stroke="#000000" stroke-width="0.8"></use></g></g><g id="text_11"><g transform="matrix(0.1 0 0 -0.1 37.875 166.852)"><use width="100%" height="100%" xlink:href="#DejaVuSans-36"></use><use x="63.623" width="100%" height="100%" xlink:href="#DejaVuSans-30"></use></g></g></g><g id="ytick_5"><g id="line2d_11"><g><use x="57.6" y="118.908" width="100%" height="100%" xlink:href="#me3ffbd7103" stroke="#000000" stroke-width="0.8"></use></g></g><g id="text_12"><g transform="matrix(0.1 0 0 -0.1 37.875 122.708)"><use width="100%" height="100%" xlink:href="#DejaVuSans-38"></use><use x="63.623" width="100%" height="100%" xlink:href="#DejaVuSans-30"></use></g></g></g><g id="ytick_6"><g id="line2d_12"><g><use x="57.6" y="74.7634" width="100%" height="100%" xlink:href="#me3ffbd7103" stroke="#000000" stroke-width="0.8"></use></g></g><g id="text_13"><g transform="matrix(0.1 0 0 -0.1 31.5125 78.5626)"><use width="100%" height="100%" xlink:href="#DejaVuSans-31"></use><use x="63.623" width="100%" height="100%" xlink:href="#DejaVuSans-30"></use><use x="127.246" width="100%" height="100%" xlink:href="#DejaVuSans-30"></use></g></g></g><g id="text_14"><g transform="matrix(6.12323e-18 -0.1 -0.1 -6.12323e-18 25.4328 182.545)"><defs><path d="M-19 4666 3928 4666 3928 4134 2272 4134 2272 0 1638 0 1638 4134-19 4134-19 4666Z" id="DejaVuSans-54" transform="scale(0.015625 0.015625)"/><path d="M628 4666 1259 4666 1259 2694 3353 4666 4166 4666 1850 2491 4331 0 3500 0 1259 2247 1259 0 628 0 628 4666Z" id="DejaVuSans-4b" transform="scale(0.015625 0.015625)"/></defs><use width="100%" height="100%" xlink:href="#DejaVuSans-54"></use><use x="61.084" width="100%" height="100%" xlink:href="#DejaVuSans-2f"></use><use x="94.7754" width="100%" height="100%" xlink:href="#DejaVuSans-4b"></use></g></g></g><g id="line2d_13"><defs><path d="M0 3C0.795609 3 1.55874 2.6839 2.12132 2.12132 2.6839 1.55874 3 0.795609 3 0 3-0.795609 2.6839-1.55874 2.12132-2.12132 1.55874-2.6839 0.795609-3 0-3-0.795609-3-1.55874-2.6839-2.12132-2.12132-2.6839-1.55874-3-0.795609-3 0-3 0.795609-2.6839 1.55874-2.12132 2.12132-1.55874 2.6839-0.795609 3 0 3Z" id="mbad47268f2" stroke="#000000"/></defs><path d="M73.8327 295.488 90.0655 289.074 122.531 274.895 154.996 259.223 187.462 241.902 219.927 222.757 252.393 201.597 284.858 178.21 317.324 152.361 349.789 123.791 382.255 92.214 398.487 74.7634" stroke="#000000" stroke-width="1.5" stroke-linecap="square" fill="none" clip-path="url(#p1af4325642)"/><g clip-path="url(#p1af4325642)"><use x="73.8327" y="295.488" width="100%" height="100%" xlink:href="#mbad47268f2" stroke="#000000"></use><use x="90.0655" y="289.074" width="100%" height="100%" xlink:href="#mbad47268f2" stroke="#000000"></use><use x="122.531" y="274.895" width="100%" height="100%" xlink:href="#mbad47268f2" stroke="#000000"></use><use x="154.996" y="259.223" width="100%" height="100%" xlink:href="#mbad47268f2" stroke="#000000"></use><use x="187.462" y="241.902" width="100%" height="100%" xlink:href="#mbad47268f2" stroke="#000000"></use><use x="219.927" y="222.757" width="100%" height="100%" xlink:href="#mbad47268f2" stroke="#000000"></use><use x="252.393" y="201.597" width="100%" height="100%" xlink:href="#mbad47268f2" stroke="#000000"></use><use x="284.858" y="178.21" width="100%" height="100%" xlink:href="#mbad47268f2" stroke="#000000"></use><use x="317.324" y="152.361" width="100%" height="100%" xlink:href="#mbad47268f2" stroke="#000000"></use><use x="349.789" y="123.791" width="100%" height="100%" xlink:href="#mbad47268f2" stroke="#000000"></use><use x="382.255" y="92.214" width="100%" height="100%" xlink:href="#mbad47268f2" stroke="#000000"></use><use x="398.487" y="74.7634" width="100%" height="100%" xlink:href="#mbad47268f2" stroke="#000000"></use></g></g><g id="line2d_14"><defs><path d="M0 3C0.795609 3 1.55874 2.6839 2.12132 2.12132 2.6839 1.55874 3 0.795609 3 0 3-0.795609 2.6839-1.55874 2.12132-2.12132 1.55874-2.6839 0.795609-3 0-3-0.795609-3-1.55874-2.6839-2.12132-2.12132-2.6839-1.55874-3-0.795609-3 0-3 0.795609-2.6839 1.55874-2.12132 2.12132-1.55874 2.6839-0.795609 3 0 3Z" id="mbcf40edd34" stroke="#0000FF"/></defs><path d="M73.8327 295.488 90.0655 292.364 122.531 285.294 154.996 276.943 187.462 266.737 219.927 253.944 252.393 237.617 284.858 216.526 317.324 189.059 349.789 153.099 382.255 105.86 398.487 74.7634" stroke="#0000FF" stroke-width="1.5" stroke-linecap="square" fill="none" clip-path="url(#p1af4325642)"/><g clip-path="url(#p1af4325642)"><use x="73.8327" y="295.488" width="100%" height="100%" xlink:href="#mbcf40edd34" stroke="#0000FF" fill="#0000FF"></use><use x="90.0655" y="292.364" width="100%" height="100%" xlink:href="#mbcf40edd34" stroke="#0000FF" fill="#0000FF"></use><use x="122.531" y="285.294" width="100%" height="100%" xlink:href="#mbcf40edd34" stroke="#0000FF" fill="#0000FF"></use><use x="154.996" y="276.943" width="100%" height="100%" xlink:href="#mbcf40edd34" stroke="#0000FF" fill="#0000FF"></use><use x="187.462" y="266.737" width="100%" height="100%" xlink:href="#mbcf40edd34" stroke="#0000FF" fill="#0000FF"></use><use x="219.927" y="253.944" width="100%" height="100%" xlink:href="#mbcf40edd34" stroke="#0000FF" fill="#0000FF"></use><use x="252.393" y="237.617" width="100%" height="100%" xlink:href="#mbcf40edd34" stroke="#0000FF" fill="#0000FF"></use><use x="284.858" y="216.526" width="100%" height="100%" xlink:href="#mbcf40edd34" stroke="#0000FF" fill="#0000FF"></use><use x="317.324" y="189.059" width="100%" height="100%" xlink:href="#mbcf40edd34" stroke="#0000FF" fill="#0000FF"></use><use x="349.789" y="153.099" width="100%" height="100%" xlink:href="#mbcf40edd34" stroke="#0000FF" fill="#0000FF"></use><use x="382.255" y="105.86" width="100%" height="100%" xlink:href="#mbcf40edd34" stroke="#0000FF" fill="#0000FF"></use><use x="398.487" y="74.7634" width="100%" height="100%" xlink:href="#mbcf40edd34" stroke="#0000FF" fill="#0000FF"></use></g></g><g id="line2d_15"><defs><path d="M0 3C0.795609 3 1.55874 2.6839 2.12132 2.12132 2.6839 1.55874 3 0.795609 3 0 3-0.795609 2.6839-1.55874 2.12132-2.12132 1.55874-2.6839 0.795609-3 0-3-0.795609-3-1.55874-2.6839-2.12132-2.12132-2.6839-1.55874-3-0.795609-3 0-3 0.795609-2.6839 1.55874-2.12132 2.12132-1.55874 2.6839-0.795609 3 0 3Z" id="m202786c785" stroke="#00BFBF"/></defs><path d="M73.8327 295.488 90.0655 277.536 122.531 238.797 154.996 198.964 187.462 160.018 219.927 124.103 252.393 93.4273 284.858 70.1575 317.324 56.2977 349.789 53.568 382.255 63.2836 398.487 74.7634" stroke="#00BFBF" stroke-width="1.5" stroke-linecap="square" fill="none" clip-path="url(#p1af4325642)"/><g clip-path="url(#p1af4325642)"><use x="73.8327" y="295.488" width="100%" height="100%" xlink:href="#m202786c785" stroke="#00BFBF" fill="#00BFBF"></use><use x="90.0655" y="277.536" width="100%" height="100%" xlink:href="#m202786c785" stroke="#00BFBF" fill="#00BFBF"></use><use x="122.531" y="238.797" width="100%" height="100%" xlink:href="#m202786c785" stroke="#00BFBF" fill="#00BFBF"></use><use x="154.996" y="198.964" width="100%" height="100%" xlink:href="#m202786c785" stroke="#00BFBF" fill="#00BFBF"></use><use x="187.462" y="160.018" width="100%" height="100%" xlink:href="#m202786c785" stroke="#00BFBF" fill="#00BFBF"></use><use x="219.927" y="124.103" width="100%" height="100%" xlink:href="#m202786c785" stroke="#00BFBF" fill="#00BFBF"></use><use x="252.393" y="93.4273" width="100%" height="100%" xlink:href="#m202786c785" stroke="#00BFBF" fill="#00BFBF"></use><use x="284.858" y="70.1575" width="100%" height="100%" xlink:href="#m202786c785" stroke="#00BFBF" fill="#00BFBF"></use><use x="317.324" y="56.2977" width="100%" height="100%" xlink:href="#m202786c785" stroke="#00BFBF" fill="#00BFBF"></use><use x="349.789" y="53.568" width="100%" height="100%" xlink:href="#m202786c785" stroke="#00BFBF" fill="#00BFBF"></use><use x="382.255" y="63.2836" width="100%" height="100%" xlink:href="#m202786c785" stroke="#00BFBF" fill="#00BFBF"></use><use x="398.487" y="74.7634" width="100%" height="100%" xlink:href="#m202786c785" stroke="#00BFBF" fill="#00BFBF"></use></g></g><g id="line2d_16"><defs><path d="M-3 3 3-3M-3-3 3 3" id="m959f715d0a" stroke="#FF0000"/></defs><path d="M73.8327 295.488 103.347 283.263 132.861 269.874 162.375 255.211 191.889 239.153 221.403 221.567 250.917 202.307 280.431 181.213 309.945 158.113 339.459 132.814 368.973 105.107 398.487 74.7634" stroke="#FF0000" stroke-width="1.5" stroke-linecap="square" fill="none" clip-path="url(#p1af4325642)"/><g clip-path="url(#p1af4325642)"><use x="73.8327" y="295.488" width="100%" height="100%" xlink:href="#m959f715d0a" stroke="#FF0000" fill="#FF0000"></use><use x="103.347" y="283.263" width="100%" height="100%" xlink:href="#m959f715d0a" stroke="#FF0000" fill="#FF0000"></use><use x="132.861" y="269.874" width="100%" height="100%" xlink:href="#m959f715d0a" stroke="#FF0000" fill="#FF0000"></use><use x="162.375" y="255.211" width="100%" height="100%" xlink:href="#m959f715d0a" stroke="#FF0000" fill="#FF0000"></use><use x="191.889" y="239.153" width="100%" height="100%" xlink:href="#m959f715d0a" stroke="#FF0000" fill="#FF0000"></use><use x="221.403" y="221.567" width="100%" height="100%" xlink:href="#m959f715d0a" stroke="#FF0000" fill="#FF0000"></use><use x="250.917" y="202.307" width="100%" height="100%" xlink:href="#m959f715d0a" stroke="#FF0000" fill="#FF0000"></use><use x="280.431" y="181.213" width="100%" height="100%" xlink:href="#m959f715d0a" stroke="#FF0000" fill="#FF0000"></use><use x="309.945" y="158.113" width="100%" height="100%" xlink:href="#m959f715d0a" stroke="#FF0000" fill="#FF0000"></use><use x="339.459" y="132.814" width="100%" height="100%" xlink:href="#m959f715d0a" stroke="#FF0000" fill="#FF0000"></use><use x="368.973" y="105.107" width="100%" height="100%" xlink:href="#m959f715d0a" stroke="#FF0000" fill="#FF0000"></use><use x="398.487" y="74.7634" width="100%" height="100%" xlink:href="#m959f715d0a" stroke="#FF0000" fill="#FF0000"></use></g></g><g id="patch_3"><path d="M57.6 307.584 57.6 41.472" stroke="#000000" stroke-width="0.8" stroke-linecap="square" stroke-linejoin="miter" fill="none"/></g><g id="patch_4"><path d="M414.72 307.584 414.72 41.472" stroke="#000000" stroke-width="0.8" stroke-linecap="square" stroke-linejoin="miter" fill="none"/></g><g id="patch_5"><path d="M57.6 307.584 414.72 307.584" stroke="#000000" stroke-width="0.8" stroke-linecap="square" stroke-linejoin="miter" fill="none"/></g><g id="patch_6"><path d="M57.6 41.472 414.72 41.472" stroke="#000000" stroke-width="0.8" stroke-linecap="square" stroke-linejoin="miter" fill="none"/></g><g id="legend_1"><g id="patch_7"><path d="M64.6 108.185 198.945 108.185C200.279 108.185 200.945 107.518 200.945 106.185L200.945 48.472C200.945 47.1387 200.279 46.472 198.945 46.472L64.6 46.472C63.2667 46.472 62.6 47.1387 62.6 48.472L62.6 106.185C62.6 107.518 63.2667 108.185 64.6 108.185Z" stroke="#CCCCCC" stroke-linejoin="miter" fill="#FFFFFF" opacity="0.8"/></g><g id="line2d_17"><path d="M66.6 54.5704 76.6 54.5704 86.6 54.5704" stroke="#000000" stroke-width="1.5" stroke-linecap="square" fill="none"/><g><use x="76.6" y="54.5704" width="100%" height="100%" xlink:href="#mbad47268f2" stroke="#000000"></use></g></g><g id="text_15"><g transform="matrix(0.1 0 0 -0.1 94.6 58.0704)"><defs><path d="M3425 4513 3425 3897C3185.67 4011.67 2959.67 4097 2747 4153 2534.33 4209.67 2329 4238 2131 4238 1787.67 4238 1522.67 4171.33 1336 4038 1149.33 3904.67 1056 3715 1056 3469 1056 3262.33 1118 3106.33 1242 3001 1366 2896.33 1601 2811.67 1947 2747L2328 2669C2798.67 2579 3146 2421 3370 2195 3594 1969 3706 1666.67 3706 1288 3706 835.333 3554.33 492.333 3251 259 2948.33 25.6667 2504.33-91 1919-91 1698.33-91 1463.33-66 1214-16 965.333 34 707.667 108 441 206L441 856C697 712.667 948 604.333 1194 531 1440 458.333 1681.67 422 1919 422 2279 422 2557 492.667 2753 634 2949 776 3047 978.333 3047 1241 3047 1469.67 2976.67 1648.67 2836 1778 2695.33 1907.33 2464.67 2004.33 2144 2069L1759 2144C1288.33 2237.33 947.667 2384 737 2584 527 2784 422 3062.33 422 3419 422 3831.67 567.333 4156.67 858 4394 1148.67 4631.33 1549 4750 2059 4750 2278.33 4750 2501.33 4730 2728 4690 2955.33 4650.67 3187.67 4591.67 3425 4513Z" id="DejaVuSans-53" transform="scale(0.015625 0.015625)"/><path d="M603 3500 1178 3500 1178 0 603 0 603 3500ZM603 4863 1178 4863 1178 4134 603 4134 603 4863Z" id="DejaVuSans-69" transform="scale(0.015625 0.015625)"/><path d="M1159 525 1159-1331 581-1331 581 3500 1159 3500 1159 2969C1280.33 3177 1433 3331.33 1617 3432 1801.67 3533.33 2022 3584 2278 3584 2703.33 3584 3048.67 3415.33 3314 3078 3580 2740.67 3713 2297 3713 1747 3713 1197 3580 753 3314 415 3048.67 77.6667 2703.33-91 2278-91 2022-91 1801.67-40.3333 1617 61 1433 162.333 1280.33 317 1159 525ZM3116 1747C3116 2169.67 3029 2501.33 2855 2742 2681 2982.67 2442 3103 2138 3103 1833.33 3103 1594 2982.67 1420 2742 1246 2501.33 1159 2169.67 1159 1747 1159 1324.33 1246 992.667 1420 752 1594 511.333 1833.33 391 2138 391 2442 391 2681 511.333 2855 752 3029 992.667 3116 1324.33 3116 1747Z" id="DejaVuSans-70" transform="scale(0.015625 0.015625)"/><path d="M603 4863 1178 4863 1178 0 603 0 603 4863Z" id="DejaVuSans-6c" transform="scale(0.015625 0.015625)"/><path d="M3597 1894 3597 1613 953 1613C978.333 1217 1097.67 915.333 1311 708 1524.33 500.667 1821.67 397 2203 397 2423.67 397 2637.67 424 2845 478 3052.33 532 3258.33 613.333 3463 722L3463 178C3256.33 90.6667 3044.67 24 2828-22 2611.33-68 2391.67-91 2169-91 1610.33-91 1168 71.3333 842 396 516 721.333 353 1161.33 353 1716 353 2288.67 507.667 2743 817 3079 1126.33 3415.67 1543.67 3584 2069 3584 2539.67 3584 2912 3432.33 3186 3129 3460 2826.33 3597 2414.67 3597 1894ZM3022 2063C3018 2377 2930 2627.67 2758 2815 2586 3003 2358.33 3097 2075 3097 1754.33 3097 1497.67 3006.33 1305 2825 1112.33 2643.67 1001.33 2388.33 972 2059L3022 2063Z" id="DejaVuSans-65" transform="scale(0.015625 0.015625)"/><path d="" id="DejaVuSans-20" transform="scale(0.015625 0.015625)"/><path d="M1959 3097C1651 3097 1407.33 2976.67 1228 2736 1048.67 2495.33 959 2165.67 959 1747 959 1328.33 1048 998.667 1226 758 1404.67 517.333 1649 397 1959 397 2265.67 397 2508.33 517.667 2687 759 2866.33 1001 2956 1330.33 2956 1747 2956 2161.67 2866.33 2490.33 2687 2733 2508.33 2975.67 2265.67 3097 1959 3097ZM1959 3584C2459 3584 2851.67 3421.33 3137 3096 3423 2771.33 3566 2321.67 3566 1747 3566 1174.33 3423 724.667 3137 398 2851.67 72 2459-91 1959-91 1457-91 1063.67 72 779 398 495 724.667 353 1174.33 353 1747 353 2321.67 495 2771.33 779 3096 1063.67 3421.33 1457 3584 1959 3584Z" id="DejaVuSans-6f" transform="scale(0.015625 0.015625)"/><path d="M544 1381 544 3500 1119 3500 1119 1403C1119 1071.67 1183.33 823 1312 657 1441.33 491.667 1635.33 409 1894 409 2204 409 2449 508 2629 706 2809.67 904 2900 1174 2900 1516L2900 3500 3475 3500 3475 0 2900 0 2900 538C2760.67 325.333 2598.67 167.333 2414 64 2230-39.3333 2016-91 1772-91 1370-91 1064.67 34 856 284 648 534 544 899.667 544 1381ZM1991 3584 1991 3584Z" id="DejaVuSans-75" transform="scale(0.015625 0.015625)"/><path d="M1172 4494 1172 3500 2356 3500 2356 3053 1172 3053 1172 1153C1172 867.667 1211 684.333 1289 603 1367 521.667 1526 481 1766 481L2356 481 2356 0 1766 0C1322 0 1015.67 82.6667 847 248 678.333 414 594 715.667 594 1153L594 3053 172 3053 172 3500 594 3500 594 4494 1172 4494Z" id="DejaVuSans-74" transform="scale(0.015625 0.015625)"/><path d="M3513 2113 3513 0 2938 0 2938 2094C2938 2425.33 2873.33 2673 2744 2837 2614.67 3001.67 2421 3084 2163 3084 1852.33 3084 1607.33 2985 1428 2787 1248.67 2589.67 1159 2320 1159 1978L1159 0 581 0 581 3500 1159 3500 1159 2956C1297 3166.67 1459 3324 1645 3428 1831.67 3532 2047 3584 2291 3584 2693 3584 2997 3459.67 3203 3211 3409.67 2962.33 3513 2596.33 3513 2113Z" id="DejaVuSans-6e" transform="scale(0.015625 0.015625)"/></defs><use width="100%" height="100%" xlink:href="#DejaVuSans-53"></use><use x="63.4766" width="100%" height="100%" xlink:href="#DejaVuSans-69"></use><use x="91.2598" width="100%" height="100%" xlink:href="#DejaVuSans-6d"></use><use x="188.672" width="100%" height="100%" xlink:href="#DejaVuSans-70"></use><use x="252.148" width="100%" height="100%" xlink:href="#DejaVuSans-6c"></use><use x="279.932" width="100%" height="100%" xlink:href="#DejaVuSans-65"></use><use x="341.455" width="100%" height="100%" xlink:href="#DejaVuSans-20"></use><use x="373.242" width="100%" height="100%" xlink:href="#DejaVuSans-53"></use><use x="436.719" width="100%" height="100%" xlink:href="#DejaVuSans-6f"></use><use x="497.9" width="100%" height="100%" xlink:href="#DejaVuSans-6c"></use><use x="525.684" width="100%" height="100%" xlink:href="#DejaVuSans-75"></use><use x="589.062" width="100%" height="100%" xlink:href="#DejaVuSans-74"></use><use x="628.271" width="100%" height="100%" xlink:href="#DejaVuSans-69"></use><use x="656.055" width="100%" height="100%" xlink:href="#DejaVuSans-6f"></use><use x="717.236" width="100%" height="100%" xlink:href="#DejaVuSans-6e"></use></g></g><g id="line2d_18"><path d="M66.6 69.2486 76.6 69.2486 86.6 69.2486" stroke="#0000FF" stroke-width="1.5" stroke-linecap="square" fill="none"/><g><use x="76.6" y="69.2486" width="100%" height="100%" xlink:href="#mbcf40edd34" stroke="#0000FF" fill="#0000FF"></use></g></g><g id="text_16"><g transform="matrix(0.1 0 0 -0.1 94.6 72.7486)"><defs><path d="M2944 4013 2944 2272 4684 2272 4684 1741 2944 1741 2944 0 2419 0 2419 1741 678 1741 678 2272 2419 2272 2419 4013 2944 4013Z" id="DejaVuSans-2b" transform="scale(0.015625 0.015625)"/><path d="M691 4666 3169 4666 3169 4134 1269 4134 1269 2991C1360.33 3022.33 1451.67 3045.67 1543 3061 1635 3076.33 1727 3084 1819 3084 2339.67 3084 2752 2941.33 3056 2656 3360.67 2370.67 3513 1984.33 3513 1497 3513 995 3356.67 604.667 3044 326 2731.33 48 2290.67-91 1722-91 1526-91 1326.33-74.3333 1123-41 920.333-7.66667 710.667 42.3333 494 109L494 744C681.333 642 875 566 1075 516 1275 466 1486.33 441 1709 441 2069.67 441 2355 535.667 2565 725 2775.67 914.333 2881 1171.67 2881 1497 2881 1821.67 2775.67 2078.67 2565 2268 2355 2458 2069.67 2553 1709 2553 1540.33 2553 1372 2534.33 1204 2497 1036.67 2459.67 865.667 2401.33 691 2322L691 4666Z" id="DejaVuSans-35" transform="scale(0.015625 0.015625)"/></defs><use width="100%" height="100%" xlink:href="#DejaVuSans-53"></use><use x="63.4766" width="100%" height="100%" xlink:href="#DejaVuSans-69"></use><use x="91.2598" width="100%" height="100%" xlink:href="#DejaVuSans-6d"></use><use x="188.672" width="100%" height="100%" xlink:href="#DejaVuSans-70"></use><use x="252.148" width="100%" height="100%" xlink:href="#DejaVuSans-6c"></use><use x="279.932" width="100%" height="100%" xlink:href="#DejaVuSans-65"></use><use x="341.455" width="100%" height="100%" xlink:href="#DejaVuSans-20"></use><use x="373.242" width="100%" height="100%" xlink:href="#DejaVuSans-53"></use><use x="436.719" width="100%" height="100%" xlink:href="#DejaVuSans-6f"></use><use x="497.9" width="100%" height="100%" xlink:href="#DejaVuSans-6c"></use><use x="525.684" width="100%" height="100%" xlink:href="#DejaVuSans-75"></use><use x="589.062" width="100%" height="100%" xlink:href="#DejaVuSans-74"></use><use x="628.271" width="100%" height="100%" xlink:href="#DejaVuSans-69"></use><use x="656.055" width="100%" height="100%" xlink:href="#DejaVuSans-6f"></use><use x="717.236" width="100%" height="100%" xlink:href="#DejaVuSans-6e"></use><use x="780.615" width="100%" height="100%" xlink:href="#DejaVuSans-2b"></use><use x="864.404" width="100%" height="100%" xlink:href="#DejaVuSans-30"></use><use x="928.027" width="100%" height="100%" xlink:href="#DejaVuSans-2e"></use><use x="959.814" width="100%" height="100%" xlink:href="#DejaVuSans-35"></use></g></g><g id="line2d_19"><path d="M66.6 83.9267 76.6 83.9267 86.6 83.9267" stroke="#00BFBF" stroke-width="1.5" stroke-linecap="square" fill="none"/><g><use x="76.6" y="83.9267" width="100%" height="100%" xlink:href="#m202786c785" stroke="#00BFBF" fill="#00BFBF"></use></g></g><g id="text_17"><g transform="matrix(0.1 0 0 -0.1 94.6 87.4267)"><defs><path d="M313 2009 1997 2009 1997 1497 313 1497 313 2009Z" id="DejaVuSans-2d" transform="scale(0.015625 0.015625)"/></defs><use width="100%" height="100%" xlink:href="#DejaVuSans-53"></use><use x="63.4766" width="100%" height="100%" xlink:href="#DejaVuSans-69"></use><use x="91.2598" width="100%" height="100%" xlink:href="#DejaVuSans-6d"></use><use x="188.672" width="100%" height="100%" xlink:href="#DejaVuSans-70"></use><use x="252.148" width="100%" height="100%" xlink:href="#DejaVuSans-6c"></use><use x="279.932" width="100%" height="100%" xlink:href="#DejaVuSans-65"></use><use x="341.455" width="100%" height="100%" xlink:href="#DejaVuSans-20"></use><use x="373.242" width="100%" height="100%" xlink:href="#DejaVuSans-53"></use><use x="436.719" width="100%" height="100%" xlink:href="#DejaVuSans-6f"></use><use x="497.9" width="100%" height="100%" xlink:href="#DejaVuSans-6c"></use><use x="525.684" width="100%" height="100%" xlink:href="#DejaVuSans-75"></use><use x="589.062" width="100%" height="100%" xlink:href="#DejaVuSans-74"></use><use x="628.271" width="100%" height="100%" xlink:href="#DejaVuSans-69"></use><use x="656.055" width="100%" height="100%" xlink:href="#DejaVuSans-6f"></use><use x="717.236" width="100%" height="100%" xlink:href="#DejaVuSans-6e"></use><use x="780.615" width="100%" height="100%" xlink:href="#DejaVuSans-2d"></use><use x="816.699" width="100%" height="100%" xlink:href="#DejaVuSans-30"></use><use x="880.322" width="100%" height="100%" xlink:href="#DejaVuSans-2e"></use><use x="912.109" width="100%" height="100%" xlink:href="#DejaVuSans-35"></use></g></g><g id="line2d_20"><path d="M66.6 98.6048 76.6 98.6048 86.6 98.6048" stroke="#FF0000" stroke-width="1.5" stroke-linecap="square" fill="none"/><g><use x="76.6" y="98.6048" width="100%" height="100%" xlink:href="#m959f715d0a" stroke="#FF0000" fill="#FF0000"></use></g></g><g id="text_18"><g transform="matrix(0.1 0 0 -0.1 94.6 102.105)"><defs><path d="M2188 4044 1331 1722 3047 1722 2188 4044ZM1831 4666 2547 4666 4325 0 3669 0 3244 1197 1141 1197 716 0 50 0 1831 4666Z" id="DejaVuSans-41" transform="scale(0.015625 0.015625)"/><path d="M2194 1759C1729.33 1759 1407.33 1706 1228 1600 1048.67 1494 959 1312.67 959 1056 959 852 1026.33 690 1161 570 1295.67 450.667 1478.33 391 1709 391 2028.33 391 2284.33 504 2477 730 2669.67 956 2766 1256.33 2766 1631L2766 1759 2194 1759ZM3341 1997 3341 0 2766 0 2766 531C2634.67 319 2471 162.333 2275 61 2079-40.3333 1839.33-91 1556-91 1198-91 913 9.66667 701 211 489.667 412.333 384 681.667 384 1019 384 1412.33 515.667 1709 779 1909 1043 2109 1436.33 2209 1959 2209L2766 2209 2766 2266C2766 2530.67 2679 2735.33 2505 2880 2331 3024.67 2086.67 3097 1772 3097 1572 3097 1377 3073 1187 3025 997.667 2977 815.667 2905 641 2809L641 3341C851 3422.33 1055 3483 1253 3523 1451 3563.67 1643.67 3584 1831 3584 2337.67 3584 2716 3452.67 2966 3190 3216 2928 3341 2530.33 3341 1997Z" id="DejaVuSans-61" transform="scale(0.015625 0.015625)"/><path d="M2059-325C1897-741.667 1738.67-1013.33 1584-1140 1430-1267.33 1224-1331 966-1331L506-1331 506-850 844-850C1002-850 1124.67-812.333 1212-737 1300-662.333 1397-485.333 1503-206L1606 56 191 3500 800 3500 1894 763 2988 3500 3597 3500 2059-325Z" id="DejaVuSans-79" transform="scale(0.015625 0.015625)"/><path d="M3122 3366 3122 2828C2959.33 2918 2796.33 2985.33 2633 3030 2469.67 3074.67 2304.67 3097 2138 3097 1764.67 3097 1474.67 2978.67 1268 2742 1062 2506 959 2174.33 959 1747 959 1319.67 1062 987.667 1268 751 1474.67 515 1764.67 397 2138 397 2304.67 397 2469.67 419.333 2633 464 2796.33 508.667 2959.33 576 3122 666L3122 134C2961.33 59.3333 2795 3.33333 2623-34 2451.67-72 2269-91 2075-91 1547.67-91 1128.67 74.6667 818 406 508 737.333 353 1184.33 353 1747 353 2317.67 509.667 2766.33 823 3093 1137 3420.33 1567 3584 2113 3584 2289.67 3584 2462.33 3565.67 2631 3529 2799.67 3493 2963.33 3438.67 3122 3366Z" id="DejaVuSans-63" transform="scale(0.015625 0.015625)"/></defs><use width="100%" height="100%" xlink:href="#DejaVuSans-41"></use><use x="68.4082" width="100%" height="100%" xlink:href="#DejaVuSans-6e"></use><use x="131.787" width="100%" height="100%" xlink:href="#DejaVuSans-61"></use><use x="193.066" width="100%" height="100%" xlink:href="#DejaVuSans-6c"></use><use x="220.85" width="100%" height="100%" xlink:href="#DejaVuSans-79"></use><use x="280.029" width="100%" height="100%" xlink:href="#DejaVuSans-74"></use><use x="319.238" width="100%" height="100%" xlink:href="#DejaVuSans-69"></use><use x="347.021" width="100%" height="100%" xlink:href="#DejaVuSans-63"></use><use x="402.002" width="100%" height="100%" xlink:href="#DejaVuSans-61"></use><use x="463.281" width="100%" height="100%" xlink:href="#DejaVuSans-6c"></use><use x="491.064" width="100%" height="100%" xlink:href="#DejaVuSans-20"></use><use x="522.852" width="100%" height="100%" xlink:href="#DejaVuSans-53"></use><use x="586.328" width="100%" height="100%" xlink:href="#DejaVuSans-6f"></use><use x="647.51" width="100%" height="100%" xlink:href="#DejaVuSans-6c"></use><use x="675.293" width="100%" height="100%" xlink:href="#DejaVuSans-75"></use><use x="738.672" width="100%" height="100%" xlink:href="#DejaVuSans-74"></use><use x="777.881" width="100%" height="100%" xlink:href="#DejaVuSans-69"></use><use x="805.664" width="100%" height="100%" xlink:href="#DejaVuSans-6f"></use><use x="866.846" width="100%" height="100%" xlink:href="#DejaVuSans-6e"></use></g></g></g></g></g></svg>